<svg xmlns="http://www.w3.org/2000/svg" style="display: none;">

<symbol viewBox="0 0 0.72 0.72" fill="none" id="icon-edit">
  <path d="M0.659 0.061a0.107 0.107 0 0 0 -0.152 0.001L0.082 0.487 0.03 0.69l0.203 -0.052L0.658 0.213a0.107 0.107 0 0 0 0.001 -0.152" stroke="currentColor" stroke-width="0.045" stroke-linecap="round" stroke-linejoin="round"/>
</symbol>
<symbol viewBox="0 0 0.72 0.72" fill="none" id="icon-delete">
  <path stroke="currentColor" stroke-linecap="round" stroke-linejoin="round" stroke-width="0.06" d="M0.27 0.21a0.09 0.09 0 0 1 0.09 -0.09v0a0.09 0.09 0 0 1 0.09 0.09v0M0.27 0.21h0.18M0.27 0.21H0.18m0.27 0h0.09m0.06 0h-0.06M0.12 0.21h0.06m0 0v0.33a0.06 0.06 0 0 0 0.06 0.06h0.24a0.06 0.06 0 0 0 0.06 -0.06V0.21"/>
</symbol>
<symbol viewBox="0 0 24 24" id="icon-offer">
  <path fill="currentColor" d="M21.377 12.593c0.785 0.108 0.972 0.228 1.579 0.739l0.305 1.038c-0.088 0.347 -0.217 0.934 -0.465 1.164 -1.007 0.943 -2.434 2.111 -3.533 2.94 -1.484 1.117 -3.313 2.785 -4.809 3.768 -2.364 0.004 -4.766 -0.284 -7.129 -0.369 -0.979 -0.035 -0.184 0.716 -0.752 1.321 -0.716 0.119 -4.863 0.083 -5.572 -0.004 -0.25 -0.201 -0.189 -0.1 -0.229 -0.446 0.349 -1.206 2.538 -8.431 2.984 -9.13 0.446 -0.281 2.614 -0.309 2.994 0.021 0.137 0.337 0.039 0.871 -0.002 1.249 1.549 -0.148 6.416 -0.222 8.028 0.205 0.565 0.15 0.821 0.891 1.025 1.405 1.071 -1.045 3.464 -2.806 4.76 -3.663 0.152 -0.101 0.618 -0.203 0.816 -0.24m-14.581 3.127c-0.046 1.753 0.144 3.521 0.011 5.253 2.236 0.08 5.256 0.417 7.338 0.392 2.647 -2.007 5.395 -4.251 7.925 -6.404 0.576 -0.49 0.18 -1.55 -0.959 -1.468 -2.203 1.451 -4.156 3.399 -6.367 4.817 -0.501 0.321 -3.547 0.401 -4.022 0.068 -0.151 -0.284 -0.144 -0.179 -0.084 -0.46 0.386 -0.376 1.117 -0.285 1.641 -0.308 0.89 -0.039 2.436 0.392 2.477 -0.996 0.007 -0.243 -0.034 -0.385 -0.173 -0.592 -0.671 -0.493 -6.439 -0.236 -7.789 -0.302M1.776 22.401c0.681 -0.05 1.237 -0.077 1.92 -0.076 0.654 0.01 1.668 -0.004 2.293 0.058 -0.162 -0.95 -0.137 -7.055 -0.009 -8.107 -0.495 0.008 -1.074 0.033 -1.561 -0.003 -0.353 0.762 -0.568 1.665 -0.838 2.464 -0.618 1.824 -1.129 3.878 -1.806 5.665"/>
  <path fill="currentColor" d="M11.966 0.795c3.595 -0.274 6.732 2.415 7.012 6.009s-2.402 6.736 -5.996 7.024c-3.603 0.288 -6.756 -2.404 -7.037 -6.008S8.362 1.069 11.966 0.795m1.204 12.094c3.067 -0.391 5.245 -3.183 4.876 -6.252s-3.146 -5.267 -6.217 -4.92c-3.103 0.351 -5.327 3.161 -4.955 6.262s3.199 5.305 6.296 4.91"/>
  <path fill="currentColor" d="M15.038 4.105c0.349 -0.001 0.563 -0.067 0.679 0.297 -0.153 0.646 -5.046 5.337 -5.86 6.105 -0.296 0.043 -0.38 0 -0.588 -0.133l-0.046 -0.212c0.157 -0.605 4.997 -5.253 5.816 -6.057"/>
  <path fill="currentColor" d="M10.951 3.227a1.373 1.373 0 1 1 1.039 2.542 1.373 1.373 0 0 1 -1.039 -2.542m0.67 1.714a0.47 0.47 0 1 0 -0.271 -0.9 0.47 0.47 0 0 0 0.271 0.9"/>
  <path fill="currentColor" d="M12.915 8.848a1.372 1.372 0 1 1 0.958 2.571 1.372 1.372 0 0 1 -0.958 -2.571m0.656 1.717a0.473 0.473 0 1 0 -0.308 -0.894 0.473 0.473 0 0 0 0.308 0.894"/>
</symbol>

</svg>
